<svg version="1.1" id="Layer_1" xmlns:x="ns_extend;" xmlns:i="ns_ai;" xmlns:graph="ns_graphs;" xmlns="http://www.w3.org/2000/svg" xmlns:xlink="http://www.w3.org/1999/xlink" x="0px" y="0px" viewBox="441.3 404.5 118.2 104.1" style="enable-background:new 441.3 404.5 118.2 104.1;" xml:space="preserve">
 <style type="text/css">
  .st0{fill:#CB2D2F;}
 </style>
 <metadata>
  <sfw xmlns="ns_sfw;">
   <slices>
   </slices>
   <sliceSourceBounds bottomLeftOrigin="true" height="104.1" width="118.2" x="440.8" y="283.9">
   </sliceSourceBounds>
  </sfw>
 </metadata>
 <g>
  <title>
   Artboard 2
  </title>
  <path class="st0" d="M441.8,443.7h-0.2c-0.2,0-0.4-0.2-0.4-0.4l0,0c0-0.1,0-0.1,0-0.2l0,0c14.3-32.6,52.4-47.5,85-33.2
		c14.8,6.5,26.7,18.4,33.2,33.2l0,0c0.1,0.2,0,0.4-0.2,0.5c0,0-0.1,0-0.1,0h-0.2l0,0c-5.5-3-11.8-4.5-18-4.4
		c-7.1-0.2-14.1,1.7-20,5.7l0,0c-0.1,0-0.2,0-0.2,0h-0.2l0,0c-12.3-7.6-27.8-7.6-40.1,0l0,0c-0.1,0-0.2,0-0.2,0h-0.2l0,0
		c-5.9-3.9-12.9-5.9-20-5.7C453.6,439.2,447.4,440.7,441.8,443.7L441.8,443.7z">
  </path>
  <path class="st0" d="M503.8,444.1L503.8,444.1c0-0.2-0.1-0.3-0.3-0.3l0,0c-1.1-0.1-2.1-0.2-3.2-0.2c-0.9,0-1.8,0-2.7,0l0,0
		c-0.2,0-0.3,0.1-0.3,0.3l0,0v52.8c0,3-2.4,5.4-5.4,5.4c-2.3,0-4.4-1.5-5.1-3.6l0,0c-0.7-1.7-2.6-2.4-4.2-1.8
		c-1.4,0.6-2.3,2.1-1.9,3.7l0,0c2,6.2,8.7,9.7,14.9,7.7c4.9-1.6,8.3-6.2,8.2-11.4L503.8,444.1z">
  </path>
 </g>
</svg>